<?xml version="1.0" encoding="UTF-8" standalone="no"?>
<svg
   id="Livello_1"
   data-name="Livello 1"
   viewBox="0 0 150.51209 79.659002"
   version="1.1"
   sodipodi:docname="Logo Vector 2.svg"
   width="150.51208"
   height="79.659004"
   inkscape:version="1.4.2 (ebf0e940, 2025-05-08)"
   xmlns:inkscape="http://www.inkscape.org/namespaces/inkscape"
   xmlns:sodipodi="http://sodipodi.sourceforge.net/DTD/sodipodi-0.dtd"
   xmlns="http://www.w3.org/2000/svg"
   xmlns:svg="http://www.w3.org/2000/svg">
  <defs
     id="defs1">
    <rect
       x="19.218119"
       y="66.110329"
       width="37.667515"
       height="22.293018"
       id="rect11" />
    <rect
       x="4.9967108"
       y="45.354759"
       width="11.530872"
       height="8.8403349"
       id="rect8" />
    <rect
       x="-22.293018"
       y="47.276573"
       width="131.06757"
       height="16.143221"
       id="rect2" />
  </defs>
  <sodipodi:namedview
     id="namedview1"
     pagecolor="#ffffff"
     bordercolor="#000000"
     borderopacity="0.25"
     inkscape:showpageshadow="2"
     inkscape:pageopacity="0.0"
     inkscape:pagecheckerboard="0"
     inkscape:deskcolor="#d1d1d1"
     inkscape:zoom="2.6017114"
     inkscape:cx="52.465466"
     inkscape:cy="108.96674"
     inkscape:window-width="1472"
     inkscape:window-height="920"
     inkscape:window-x="0"
     inkscape:window-y="36"
     inkscape:window-maximized="0"
     inkscape:current-layer="Livello_1" />
  <path
     d="m 52.504927,48.15 c 0,0 -0.08,-0.02 -0.11,-0.05 -0.05,-0.06 -0.04,-0.14 0,-0.19 l 4.67,-4.74 -0.4,-0.85 c 0,0 -5.06,0.69 -5.06,0.69 -0.06,0 -0.12,-0.04 -0.13,-0.1 -0.02,-0.07 0,-0.14 0.07,-0.17 l 7.09,-3.76 3.12,-1.48 c 0.15,-0.07 3.6,-1.71 4.23,-1.97 0.3,-0.12 0.95,-0.35 1.63,-0.58 0.76,-0.26 1.55,-0.53 1.92,-0.68 0.69,-0.29 2.85,-1.57 2.87,-1.58 l 1.33,-1.74 1.96,-3.26 0.34,-2.64 -0.49,-1.25 -0.68,-0.18 -1.26,-0.16 c 0,0 -0.59,0.06 -0.68,0.06 -0.07,0 -0.71,0.13 -1.27,0.25 0,0 -0.81,0.56 -0.92,0.64 -0.11,0.08 -1.35,1.13 -1.35,1.13 l -1.02,1.1 -3.56,2.25 -1.52,1.86 -1.93,1.97 -0.89,0.85 c 0,0 -0.06,0.04 -0.1,0.04 -0.04,0 -0.07,-0.01 -0.1,-0.04 -0.06,-0.05 -0.06,-0.14 0,-0.2 l 13.77,-15.81 2.85,-2.8 0.18,-1 -0.07,-0.73 -0.45,-0.22 -0.91,-0.02 -0.7,0.18 -0.96,0.58 -11.15,12.12 c 0,0 -0.07,0.05 -0.1,0.05 -0.03,0 -0.07,-0.01 -0.09,-0.03 -0.06,-0.05 -0.06,-0.14 -0.02,-0.2 l 11.59,-14.07 0.71,-2.29 -0.04,-2.03 -0.37,-1.49 -1.09,-0.77 h -1.1 c 0,0 -1,0.53 -1,0.53 l -19.79,24.87 -2.14,3.76 -0.96,2.14 -0.89,1.78 c 0,0 -0.05,0.07 -0.1,0.08 l -0.85,0.19 c 0,0 -0.02,0 -0.03,0 -0.02,0 -0.05,0 -0.07,-0.02 l -0.57,-0.32 c -0.05,-0.05 -0.22,-0.28 -0.25,-0.6 -0.03,-0.29 0,-0.76 0,-0.76 0,-0.04 0.18,-0.51 0.29,-0.75 0.11,-0.24 0.51,-0.88 0.51,-0.88 l 1.2,-3.6 -0.16,-1.13 -0.86,-0.31 -1.03,0.61 -1.74,2.19 -10,7.58 c 0,0 -0.06,0.03 -0.09,0.03 -0.04,0 -0.08,-0.02 -0.1,-0.05 -0.05,-0.05 -0.05,-0.14 0,-0.19 l 12.19,-13.22 4.44,-5.11 c 0,0 2.84,-2.57 3.01,-2.73 0.13,-0.13 0.92,-1.07 1.33,-1.55 l 0.05,-1.06 -0.26,-0.94 -0.65,-0.3 c 0,0 -0.62,0.19 -1.11,0.44 -0.23,0.12 -0.64,0.42 -1.19,0.86 l -4.87,5.53 c 0,0 -0.07,0.05 -0.11,0.05 -0.03,0 -0.07,-0.01 -0.09,-0.03 -0.06,-0.05 -0.07,-0.14 -0.02,-0.2 l 4.3,-5.06 c 0,0 0.26,-0.23 0.59,-0.49 l 1.98,-2.26 -0.25,-2.01 -0.61,-0.54 -1.2,0.11 -18.19,17.09 -0.91,3.1 c -0.68,0.7 -1.4,1.5 -1.44,1.65 -0.06,0.28 -0.56,2.28 -0.56,2.28 l 0.06,2.69 0.22,2.21 c 0,0.08 -0.05,0.14 -0.12,0.15 0,0 -0.01,0 -0.02,0 -0.07,0 -0.13,-0.05 -0.14,-0.11 l -1.06,-5.48 -0.97,-0.71 -1.78,0.22 -2.01,0.99 -17.1900005,10.26 c 0,0 -0.05,0.02 -0.07,0.02 -0.05,0 -0.09,-0.02 -0.12,-0.07 -0.04,-0.06 -0.02,-0.15 0.04,-0.19 l 16.0000005,-10.67 7.77,-6.21 13.11,-11.55 7.99,-7.99 c 0,0 0.06,-0.04 0.1,-0.04 0.04,0 0.07,0.01 0.1,0.04 l 8.13,8.13 3.23,-2.8 3.31,-5.3 6.22,-9.13 c 0,0 0.06,-0.06 0.1,-0.06 0,0 0,0 0.01,0 0.04,0 0.07,0.02 0.1,0.04 l 8.67,8.89 8.67,9.34 4.12,3.25 4.58,-3.05 5.320003,-4.44 c 0,0 0.06,-0.03 0.09,-0.03 0.03,0 0.06,0.01 0.09,0.03 l 8.44,6.89 9.11,7.56 8,7.34 11.1,7.99 c 0.06,0.04 0.08,0.12 0.04,0.18 -0.03,0.05 -0.07,0.08 -0.13,0.08 -0.02,0 -0.03,0 -0.05,0 l -4.76,-1.63 -0.79,0.3 -0.24,1.11 -0.83,0.67 c 0,0 -0.05,0.03 -0.09,0.03 0,0 -0.68,-0.07 -0.68,-0.07 l -11.38,-11.71 -2.52,-1.31 -0.6,0.02 -0.66,0.04 c -0.29,0.03 -0.6,0.11 -0.65,0.18 0,0.21 -0.16,1.06 -0.18,1.16 v 0.9 c 0,0 0.88,2.21 0.88,2.21 l 3.77,6.91 c 0.04,0.06 0.02,0.14 -0.04,0.19 -0.02,0.02 -0.05,0.02 -0.08,0.02 -0.04,0 -0.08,-0.02 -0.11,-0.05 l -10.22,-12.56 -2.64,-4.76 -2.18,-3.59 -0.19,-0.35 -0.06,3.06 0.04,2.22 c 0,0 0.4,1.48 0.58,1.91 0.19,0.45 0.9,3.05 0.93,3.17 l 5.69,9.6 c 0.04,0.06 0.02,0.15 -0.04,0.19 -0.02,0.02 -0.05,0.02 -0.08,0.02 -0.04,0 -0.09,-0.02 -0.11,-0.06 l -6.18,-8.3 -1.63,-2.21 -1.33,-0.13 -4.29,6.42 -2.290003,2.44 -2.73,2.48 c 0,0 -0.06,0.04 -0.1,0.04 -0.03,0 -0.06,0 -0.08,-0.03 -0.05,-0.04 -0.07,-0.11 -0.04,-0.18 l 3.2,-6.56 2.010003,-2.69 c 0,0 0.56,-1.36 0.64,-1.83 0.25,-1.39 0.11,-5.7 0.11,-5.75 l -0.19,-1.35 -2.220003,1.5 -0.5,0.66 -3.31,5.77 c 0,0 -0.07,0.07 -0.12,0.07 -0.02,0 -0.04,0 -0.06,-0.01 -0.07,-0.03 -0.1,-0.11 -0.07,-0.18 l 0.59,-1.67 0.94,-1.51 c 0.04,-0.07 1,-1.6 1.12,-1.75 0.06,-0.08 0.38,-0.5 0.68,-0.89 l 1.58,-2.76 0.21,-1.49 -1.71,0.18 -1.84,1.58 -2.16,2 -11.66,9.15 -1.19,2.14 -0.02,1.9 v 1.89 l 0.15,2.36 0.07,0.96 c 0,0.07 -0.04,0.14 -0.12,0.15 0,0 -0.02,0 -0.03,0 -0.06,0 -0.12,-0.04 -0.14,-0.1 l -1.02,-3.31 -1.55,0.88 -1.83,1.68 -1.93,1.6 c 0,0 -0.06,0.03 -0.09,0.03 -0.04,0 -0.07,-0.01 -0.1,-0.04 -0.05,-0.05 -0.05,-0.14 0,-0.19 l 4.33,-4.78 0.71,-3.38 14.2,-11.94 -0.93,-0.78 -0.87,-0.34 c 0,0 -0.36,0 -0.54,0 -0.18,0 -0.23,0 -0.24,0 -0.11,0.04 -1.21,0.75 -1.87,1.18 l -1.83,1.25 -9.85,6.35 -2.5,1.96 -2.02,1.56 -0.72,1.1 -0.3,1.02 1.28,2.48 c 0.03,0.06 0.01,0.14 -0.04,0.18 -0.03,0.02 -0.05,0.03 -0.08,0.03 -0.04,0 -0.07,-0.01 -0.1,-0.04 l -2.81,-2.79 -2.04,0.32 -2.19,0.99 -2.15,1.41 -4.38,1.56 -1.89,1.28 -2.35,2.37 c -0.74,0.61 -1.85,1.53 -1.93,1.61 -0.12,0.12 -0.87,0.62 -1.02,0.72 -0.02,0.02 -0.05,0.02 -0.08,0.02 z"
     fill="#737373"
     id="path1"
     style="fill:#737373;fill-opacity:1" />
  <text
     xml:space="preserve"
     style="text-align:start;writing-mode:lr-tb;direction:ltr;text-anchor:start;white-space:pre;inline-size:88.3518;display:inline;fill:#000000"
     x="7.4076924"
     y="64.817307"
     id="text1"
     transform="translate(6.8949265)" />
  <text
     xml:space="preserve"
     id="text2"
     style="text-align:start;writing-mode:lr-tb;direction:ltr;white-space:pre;shape-inside:url(#rect2);display:inline;fill:#000000"
     transform="translate(6.8949265)" />
  <text
     xml:space="preserve"
     id="text8"
     style="font-style:normal;font-variant:normal;font-weight:normal;font-stretch:normal;font-size:8px;font-family:'FONTSPRING DEMO - Bold';-inkscape-font-specification:'FONTSPRING DEMO - Bold, ';text-align:start;writing-mode:lr-tb;direction:ltr;white-space:pre;shape-inside:url(#rect8);display:inline;fill:#000000"
     transform="translate(6.8949265)" />
  <text
     xml:space="preserve"
     id="text11"
     style="font-style:normal;font-variant:normal;font-weight:normal;font-stretch:normal;font-size:8px;font-family:'FONTSPRING DEMO - Bold';-inkscape-font-specification:'FONTSPRING DEMO - Bold, ';text-align:start;writing-mode:lr-tb;direction:ltr;white-space:pre;shape-inside:url(#rect11);display:inline;fill:#000000"
     transform="translate(6.8949265)" />
  <path
     d="m 5.712041,51.03942 c -2.76,0 -4.79999998,1.824 -4.79999998,4.224 0,2.208 0.95999998,3.504 3.50399998,4.92 1.584,0.888 2.952,1.32 2.952,2.616 0,0.984 -0.888,1.68 -2.16,1.68 -1.032,0 -2.4,-0.696 -3.24,-1.704 L 4.1015625e-5,65.03142 C 1.488041,66.61542 3.408041,67.47942 5.448041,67.47942 c 3.024,0 5.232,-1.992 5.232,-4.728 0,-2.16 -1.08,-3.384 -3.888,-4.872 -1.512,-0.816 -2.712,-1.344 -2.712,-2.472 0,-0.816 0.72,-1.392 1.632,-1.392 1.08,0 2.232,0.48 3.12,1.368 l 1.728,-2.328 c -1.32,-1.272 -3.144,-2.016 -4.848,-2.016 z m 10.024001,0.24 4.2,15.984 h 3.336 l 3.552,-11.064 3.552,11.064 h 3.336 l 4.2,-15.984 h -3.504 l -2.616,11.112 -3.432,-11.112 h -3.072 l -3.432,11.112 -2.616,-11.112 z m 27.856018,0 v 15.984 h 3.264 v -15.984 z m 14.752,-0.24 c -2.76,0 -4.8,1.824 -4.8,4.224 0,2.208 0.96,3.504 3.504,4.92 1.584,0.888 2.952,1.32 2.952,2.616 0,0.984 -0.888,1.68 -2.16,1.68 -1.032,0 -2.4,-0.696 -3.24,-1.704 l -1.968,2.256 c 1.488,1.584 3.408,2.448 5.448,2.448 3.024,0 5.232,-1.992 5.232,-4.728 0,-2.16 -1.08,-3.384 -3.888,-4.872 -1.512,-0.816 -2.712,-1.344 -2.712,-2.472 0,-0.816 0.72,-1.392 1.632,-1.392 1.08,0 2.232,0.48 3.12,1.368 l 1.728,-2.328 c -1.32,-1.272 -3.144,-2.016 -4.848,-2.016 z m 15.832001,0 c -2.76,0 -4.8,1.824 -4.8,4.224 0,2.208 0.96,3.504 3.504,4.92 1.584,0.888 2.952,1.32 2.952,2.616 0,0.984 -0.888,1.68 -2.16,1.68 -1.032,0 -2.4,-0.696 -3.24,-1.704 l -1.968,2.256 c 1.488,1.584 3.408,2.448 5.448,2.448 3.024,0 5.232,-1.992 5.232,-4.728 0,-2.16 -1.08,-3.384 -3.888,-4.872 -1.512,-0.816 -2.712,-1.344 -2.712,-2.472 0,-0.816 0.72,-1.392 1.632,-1.392 1.08,0 2.232,0.48 3.12,1.368 l 1.728,-2.328 c -1.32,-1.272 -3.144,-2.016 -4.848,-2.016 z m 11.080001,0.24 v 15.984 h 3.264 v -6.24 h 2.76 c 2.64,0 4.656,-2.088 4.656,-4.872 0,-2.784 -2.04,-4.872 -4.68,-4.872 z m 3.264,2.928 h 2.328 c 1.128,0 1.944,0.792 1.944,1.944 0,1.152 -0.816,1.944 -1.944,1.944 h -2.328 z m 13.528018,-2.928 v 15.984 h 9.744 v -3.072 h -6.48 v -3.408 h 6.216 v -3.024 h -6.216 v -3.408 h 6.48 v -3.072 z m 20.896,0 -5.904,15.984 h 3.672 l 1.2,-3.48 h 5.52 l 1.2,3.48 h 3.672 l -5.904,-15.984 z m 1.728,4.488 1.776,5.184 h -3.576 z m 13.09597,-4.488 v 15.984 h 3.264 v -7.656 l 5.64,7.656 h 3.84 l -6.288,-8.208 5.976,-7.776 h -3.768 l -5.4,7.224 v -7.224 z"
     id="text12"
     style="font-size:24px;line-height:28.8;font-family:'FONTSPRING DEMO - Bold';-inkscape-font-specification:'FONTSPRING DEMO - Bold, ';letter-spacing:4px;fill:#737373"
     aria-label="SWISSPEAK" />
  <path
     d="m 39.789372,72.458996 v 7.104023 h 1.450671 v -2.773342 h 1.22667 c 1.173338,0 2.06934,-0.928003 2.06934,-2.16534 0,-1.237338 -0.906669,-2.165341 -2.080006,-2.165341 z m 1.450671,1.301338 h 1.03467 c 0.501335,0 0.864003,0.352001 0.864003,0.864003 0,0.512001 -0.362668,0.864002 -0.864003,0.864002 h -1.03467 z m 9.386704,-1.301338 -2.624009,7.104023 h 1.632006 l 0.533335,-1.546672 h 2.453341 l 0.533335,1.546672 h 1.632005 l -2.624008,-7.104023 z m 0.768002,1.994673 0.789336,2.304008 h -1.589338 z m 8.042671,-1.994673 v 7.104023 h 1.450671 v -2.773342 h 0.629336 l 1.514671,2.773342 h 1.642672 l -1.696005,-2.933343 c 0.757335,-0.309334 1.269337,-1.06667 1.269337,-2.005339 0,-1.237338 -0.90667,-2.165341 -2.080007,-2.165341 z m 1.450671,1.301338 h 1.09867 c 0.501335,0 0.864003,0.352001 0.864003,0.864003 0,0.512001 -0.362668,0.864002 -0.864003,0.864002 h -1.09867 z m 8.010676,-1.301338 v 1.365338 h 1.792005 v 5.738685 h 1.450671 v -5.738685 h 1.792006 v -1.365338 z m 9.781344,0 v 7.104023 h 1.450671 v -4.586681 l 3.10401,4.586681 h 1.344004 v -7.104023 h -1.450671 v 4.565348 l -3.093343,-4.565348 z m 11.114685,0 v 7.104023 h 4.330681 v -1.365338 h -2.88001 V 76.68301 h 2.762676 v -1.344005 h -2.762676 v -1.514671 h 2.88001 v -1.365338 z m 9.45068,0 v 7.104023 h 1.450674 v -2.773342 h 0.62933 l 1.51467,2.773342 h 1.64268 l -1.69601,-2.933343 c 0.75734,-0.309334 1.26934,-1.06667 1.26934,-2.005339 0,-1.237338 -0.90667,-2.165341 -2.08001,-2.165341 z m 1.450674,1.301338 h 1.09867 c 0.50133,0 0.864,0.352001 0.864,0.864003 0,0.512001 -0.36267,0.864002 -0.864,0.864002 h -1.09867 z m 10.59202,-1.408005 c -1.22667,0 -2.13334,0.81067 -2.13334,1.87734 0,0.981336 0.42666,1.557338 1.55733,2.186673 0.70401,0.394668 1.31201,0.586669 1.31201,1.162671 0,0.437334 -0.39467,0.746669 -0.96,0.746669 -0.45867,0 -1.06667,-0.309335 -1.44001,-0.757336 l -0.87467,1.00267 c 0.66134,0.704002 1.51467,1.088003 2.42134,1.088003 1.34401,0 2.32534,-0.885336 2.32534,-2.10134 0,-0.960003 -0.48,-1.504005 -1.728,-2.16534 -0.672,-0.362668 -1.20534,-0.597335 -1.20534,-1.09867 0,-0.362668 0.32,-0.618669 0.72534,-0.618669 0.48,0 0.992,0.213334 1.38667,0.608002 l 0.768,-1.03467 c -0.58667,-0.565335 -1.39734,-0.896003 -2.15467,-0.896003 z"
     id="text13"
     style="font-size:10.6667px;line-height:0;font-family:'FONTSPRING DEMO - Bold';-inkscape-font-specification:'FONTSPRING DEMO - Bold, ';letter-spacing:4px;fill:#737373"
     aria-label="PARTNERS" />
</svg>
